<svg width="160" height="160" viewBox="0 0 160 160" fill="none" xmlns="http://www.w3.org/2000/svg">
<path d="M87.7685 16.1316C86.7774 16.0103 85.8858 15.7287 85.094 15.2866C84.3029 14.8377 83.6406 14.2458 83.1069 13.5108C82.5732 12.7759 82.1939 11.9148 81.969 10.9276C81.744 9.94044 81.7059 8.84495 81.8547 7.64114C82.0505 6.05646 82.509 4.73176 83.2304 3.66704C83.9526 2.59551 84.8676 1.81683 85.9753 1.33099C87.0839 0.838341 88.3115 0.674382 89.6581 0.839111C91.3942 1.0515 92.7288 1.6221 93.6618 2.5509C94.6016 3.48054 95.1721 4.67568 95.3732 6.13632L93.1517 6.25808C92.9593 5.34394 92.5606 4.58404 91.9554 3.97841C91.3503 3.37277 90.5423 3.00467 89.5315 2.87412C88.4865 2.73938 87.5865 2.86401 86.8313 3.248C86.0829 3.63282 85.4819 4.22899 85.0283 5.03649C84.5755 5.8372 84.2763 6.79823 84.1308 7.91959C83.9853 9.04095 84.0348 10.0446 84.2792 10.9306C84.5244 11.8098 84.9666 12.5267 85.6058 13.0813C86.2519 13.6367 87.0974 13.9817 88.1424 14.1165C88.9814 14.2329 89.7215 14.1681 90.3625 13.9221C91.0111 13.67 91.5519 13.2529 91.9846 12.6707C92.4174 12.0884 92.7413 11.3479 92.9565 10.4491L90.0856 10.0979L90.2974 8.38399L95.4444 9.01364C95.4429 9.13773 95.433 9.30222 95.4146 9.50709C95.3971 9.70516 95.385 9.8314 95.3783 9.88581C95.2102 11.246 94.797 12.4279 94.1387 13.4313C93.4805 14.4347 92.6111 15.181 91.5307 15.6702C90.4511 16.1525 89.1971 16.3064 87.7685 16.1316Z" fill="white"/>
<path d="M101.997 19.4941C100.952 19.1246 100.115 18.5738 99.4844 17.8418C98.863 17.1056 98.477 16.2527 98.3265 15.2831C98.1847 14.3094 98.3065 13.2834 98.6917 12.2051C99.1 11.0623 99.6683 10.147 100.396 9.45915C101.131 8.7736 101.966 8.3382 102.902 8.15295C103.838 7.9677 104.819 8.05641 105.844 8.41909C106.915 8.79784 107.738 9.36892 108.313 10.1323C108.89 10.8893 109.201 11.7884 109.246 12.8296C109.297 13.8731 109.06 15.0074 108.534 16.2324L106.5 15.5128L106.763 14.7767C107.184 13.5583 107.271 12.5782 107.024 11.8364C106.784 11.097 106.203 10.5643 105.282 10.2383C104.263 9.87793 103.383 9.92666 102.642 10.3845C101.901 10.8424 101.315 11.675 100.884 12.8823C100.473 14.0316 100.411 15.0133 100.698 15.8273C100.986 16.635 101.614 17.2098 102.581 17.5518C103.217 17.7768 103.816 17.8287 104.378 17.7076C104.949 17.5823 105.46 17.2976 105.911 16.8536L107.682 18.1889C106.938 18.9805 106.059 19.4876 105.044 19.7103C104.031 19.9266 103.015 19.8545 101.997 19.4941ZM100.018 13.2196L100.582 11.641L108.086 14.2957L107.522 15.8743L100.018 13.2196Z" fill="white"/>
<path d="M114.546 25.0796C113.862 24.8703 113.227 24.598 112.642 24.2627C112.057 23.9275 111.588 23.5296 111.234 23.069C110.88 22.6084 110.707 22.0885 110.714 21.5093C110.72 20.9913 110.826 20.5191 111.032 20.0926C111.247 19.6634 111.498 19.1829 111.784 18.6514L116.443 9.99895L118.356 11.0183L113.745 19.5802C113.534 19.9728 113.353 20.3157 113.203 20.6088C113.059 20.9052 112.991 21.1838 112.999 21.4447C113.016 21.9356 113.247 22.3345 113.691 22.6413C114.145 22.9453 114.717 23.2235 115.41 23.4759L114.546 25.0796ZM112.275 13.2343L113.095 11.7122L119.815 15.2946L118.995 16.8167L112.275 13.2343Z" fill="white"/>
<path d="M123.867 32.7539C123.081 32.0355 122.494 31.2529 122.107 30.406C121.73 29.5587 121.566 28.6976 121.616 27.8225C121.676 26.947 121.964 26.1079 122.481 25.3052L124.37 26.571C123.923 27.3901 123.793 28.2298 123.981 29.0899C124.173 29.945 124.625 30.697 125.335 31.3459C125.776 31.7491 126.245 32.0518 126.741 32.2539C127.242 32.4509 127.722 32.5227 128.183 32.4692C128.654 32.4153 129.057 32.2067 129.392 31.8433C129.574 31.6464 129.699 31.4399 129.768 31.2236C129.841 31.0119 129.869 30.7949 129.849 30.5727C129.84 30.35 129.786 30.1195 129.688 29.8811C129.6 29.6424 129.482 29.4 129.335 29.1541L127.289 25.7635C127.09 25.4324 126.906 25.074 126.739 24.6883C126.576 24.2975 126.471 23.8898 126.423 23.465C126.386 23.0398 126.435 22.6061 126.572 22.1638C126.714 21.7165 126.99 21.2707 127.4 20.8266C128.019 20.1553 128.716 19.7451 129.489 19.5959C130.272 19.4463 131.07 19.5241 131.883 19.8292C132.7 20.1292 133.476 20.6152 134.212 21.2873C134.943 21.974 135.484 22.7101 135.834 23.4955C136.19 24.2855 136.341 25.0938 136.289 25.9205C136.246 26.7468 135.989 27.5627 135.516 28.3684L133.546 27.0988C133.848 26.6205 134.009 26.1214 134.031 25.6015C134.057 25.0766 133.962 24.5714 133.746 24.0859C133.535 23.5953 133.222 23.1551 132.805 22.7654C132.409 22.3845 131.98 22.1044 131.519 21.9251C131.063 21.7504 130.624 21.689 130.202 21.7408C129.786 21.7973 129.435 21.9794 129.151 22.2873C128.872 22.5901 128.735 22.916 128.74 23.265C128.745 23.614 128.826 23.9622 128.982 24.3096C129.148 24.6566 129.327 24.9836 129.521 25.2906L131.021 27.7077C131.209 28.0101 131.407 28.3679 131.615 28.781C131.833 29.1938 131.993 29.6428 132.097 30.1283C132.205 30.6183 132.196 31.1304 132.067 31.6645C131.944 32.1935 131.638 32.7229 131.148 33.2529C130.641 33.803 130.082 34.1856 129.472 34.4006C128.867 34.6105 128.239 34.6783 127.587 34.6041C126.946 34.5294 126.306 34.331 125.668 34.0089C125.03 33.6867 124.43 33.2684 123.867 32.7539Z" fill="white"/>
<path d="M133.716 43.3877C133.172 42.9244 132.699 42.423 132.297 41.8834C131.895 41.3438 131.624 40.7927 131.484 40.2301C131.344 39.6674 131.394 39.1219 131.632 38.5935C131.845 38.1207 132.131 37.7296 132.491 37.4202C132.861 37.112 133.283 36.771 133.759 36.397L141.498 30.3098L142.843 32.0031L135.185 38.0266C134.834 38.3028 134.531 38.5456 134.276 38.755C134.025 38.9697 133.851 39.1982 133.754 39.4406C133.572 39.8976 133.624 40.3548 133.909 40.8124C134.203 41.2711 134.617 41.7534 135.15 42.2595L133.716 43.3877ZM136.379 31.6237L137.741 30.5528L142.468 36.5037L141.107 37.5746L136.379 31.6237Z" fill="white"/>
<path d="M135.469 46.9221C135.056 46.2095 134.842 45.5375 134.826 44.906C134.817 44.2711 134.957 43.7042 135.249 43.2052C135.55 42.7087 135.963 42.31 136.488 42.0091C136.977 41.7288 137.457 41.5687 137.926 41.5289C138.396 41.4892 138.857 41.565 139.31 41.7565C139.768 41.9446 140.221 42.2389 140.667 42.6395C141.04 42.9952 141.43 43.416 141.838 43.9017C142.247 44.3874 142.664 44.9032 143.091 45.4492C143.522 46.0011 143.949 46.5471 144.373 47.0871L143.605 46.6255C144.37 46.2032 144.838 45.7215 145.01 45.1803C145.191 44.6417 145.05 43.9716 144.586 43.1699C144.294 42.6651 143.906 42.2703 143.423 41.9854C142.947 41.6972 142.389 41.6254 141.749 41.7703L141.281 39.7256C142.248 39.4879 143.169 39.5614 144.043 39.9461C144.921 40.3368 145.681 41.0874 146.324 42.1979C146.822 43.059 147.106 43.8927 147.175 44.6991C147.254 45.508 147.06 46.2438 146.593 46.9066C146.366 47.2422 146.087 47.5286 145.755 47.766C145.424 48.0034 145.055 48.2383 144.649 48.4708L138.696 51.8813L137.742 50.2334L139.953 48.9666L139.852 49.4514C138.882 49.4775 138.036 49.286 137.315 48.877C136.603 48.4704 135.987 47.8188 135.469 46.9221ZM137.19 46.3747C137.496 46.9032 137.851 47.3045 138.256 47.5786C138.667 47.8493 139.086 48.0166 139.512 48.0807C139.939 48.1447 140.331 48.1218 140.688 48.0119C141.033 47.9487 141.388 47.8205 141.753 47.6272C142.122 47.4399 142.413 47.2847 142.628 47.1616L142.755 47.8955C142.325 47.3589 141.935 46.8706 141.585 46.4306C141.235 45.9906 140.911 45.5952 140.613 45.2443C140.324 44.8959 140.044 44.5976 139.773 44.3495C139.536 44.1454 139.296 43.9783 139.054 43.8482C138.815 43.724 138.572 43.6538 138.324 43.6376C138.08 43.6274 137.829 43.6958 137.573 43.8428C137.322 43.9864 137.125 44.1821 136.983 44.4299C136.846 44.6742 136.789 44.96 136.811 45.2872C136.834 45.6143 136.96 45.9768 137.19 46.3747Z" fill="white"/>
<path d="M139.78 54.5335L150.202 50.5717L150.887 52.3576L148.359 53.3187L148.591 52.9443C148.975 52.9452 149.344 52.9955 149.7 53.0951C150.061 53.1924 150.384 53.3412 150.667 53.5415C150.961 53.7306 151.221 53.9656 151.447 54.2465C151.681 54.5314 151.874 54.8398 152.023 55.1718C152.179 55.5012 152.288 55.8338 152.351 56.1695L150.46 56.8885C150.419 56.515 150.3 56.1275 150.102 55.7261C149.906 55.3311 149.629 55.0036 149.271 54.7435C148.933 54.4978 148.577 54.3364 148.2 54.2593C147.827 54.1886 147.437 54.1825 147.032 54.2412C146.634 54.2974 146.229 54.4037 145.817 54.5602L140.558 56.5595L139.78 54.5335Z" fill="white"/>
<path d="M144.107 68.5287C143.801 67.8847 143.576 67.2346 143.431 66.5785C143.285 65.9224 143.265 65.3092 143.368 64.7389C143.472 64.1685 143.742 63.6909 144.176 63.3059C144.565 62.9609 144.987 62.7205 145.442 62.5847C145.906 62.4539 146.432 62.3146 147.02 62.1669L156.584 59.762L157.116 61.8548L147.651 64.2345C147.217 64.3436 146.841 64.4417 146.522 64.529C146.205 64.6228 145.952 64.7606 145.764 64.9422C145.411 65.2855 145.27 65.7238 145.341 66.2571C145.421 66.7953 145.601 67.404 145.88 68.083L144.107 68.5287ZM151.373 58.8777L153.056 58.4547L154.924 65.8091L153.241 66.2322L151.373 58.8777Z" fill="white"/>
<path d="M144.373 73.9205C144.263 72.8228 144.406 71.8341 144.802 70.9545C145.205 70.0811 145.816 69.3696 146.632 68.8201C147.457 68.2767 148.441 67.9481 149.586 67.8342C150.799 67.7136 151.873 67.8339 152.809 68.1953C153.746 68.5635 154.498 69.1292 155.066 69.8921C155.634 70.6551 155.972 71.5753 156.081 72.6526C156.194 73.7776 156.026 74.7619 155.578 75.6053C155.137 76.448 154.452 77.1118 153.525 77.5966C152.599 78.0881 151.467 78.3591 150.129 78.4096L149.914 76.272L150.696 76.1943C151.982 76.0525 152.91 75.7123 153.479 75.1736C154.049 74.6418 154.285 73.8918 154.187 72.9236C154.08 71.8531 153.66 71.0823 152.927 70.6111C152.195 70.1399 151.188 69.9681 149.906 70.0956C148.686 70.2169 147.768 70.5803 147.15 71.1857C146.54 71.7905 146.286 72.6009 146.388 73.6168C146.455 74.285 146.663 74.8462 147.014 75.3003C147.371 75.7606 147.848 76.0988 148.444 76.3149L147.987 78.478C146.95 78.1473 146.114 77.5729 145.478 76.7546C144.849 75.9357 144.481 74.991 144.373 73.9205ZM149.23 69.4604L150.905 69.2937L151.698 77.1792L150.022 77.3459L149.23 69.4604Z" fill="white"/>
<path d="M144.399 85.8551C144.499 84.8252 144.843 83.9599 145.43 83.2591C146.016 82.5651 146.771 82.056 147.695 81.7319C148.625 81.4152 149.646 81.3103 150.756 81.4172C151.874 81.5247 152.851 81.8253 153.689 82.3189C154.533 82.8133 155.173 83.46 155.607 84.259C156.048 85.0656 156.217 85.9872 156.117 87.024C156.015 88.0675 155.673 88.9192 155.09 89.5791C154.513 90.2464 153.765 90.7183 152.846 90.9947C151.925 91.2779 150.91 91.3661 149.8 91.2593C148.689 91.1524 147.71 90.8723 146.861 90.4189C146.013 89.9655 145.363 89.3556 144.912 88.5893C144.467 87.8237 144.296 86.9123 144.399 85.8551ZM146.313 86.3388C146.245 87.0413 146.357 87.6304 146.65 88.1061C146.943 88.5817 147.374 88.9502 147.944 89.2116C148.513 89.4729 149.182 89.6405 149.95 89.7144C150.718 89.7883 151.407 89.7479 152.017 89.5931C152.626 89.4453 153.116 89.1689 153.488 88.764C153.859 88.366 154.077 87.8328 154.141 87.1643C154.21 86.455 154.092 85.855 153.787 85.3644C153.482 84.8738 153.046 84.4876 152.478 84.2058C151.91 83.9308 151.262 83.7583 150.536 83.6884C149.802 83.6178 149.127 83.663 148.509 83.8239C147.898 83.9922 147.396 84.2812 147.003 84.6909C146.61 85.1075 146.38 85.6567 146.313 86.3388ZM144.387 89.1791L152.376 89.9479L152.4 89.7024L159.217 90.3583L159.009 92.5068L144.202 91.0821L144.387 89.1791Z" fill="white"/>
<path d="M140.533 103.569L152.441 108.351L154.293 103.785L156.18 104.543L151.668 115.666L149.781 114.909L151.633 110.343L139.725 105.561L140.533 103.569Z" fill="white"/>
<path d="M134.213 115.117C134.821 114.186 135.559 113.515 136.427 113.103C137.295 112.692 138.22 112.538 139.203 112.642C140.188 112.756 141.166 113.126 142.136 113.753C143.113 114.383 143.847 115.127 144.338 115.984C144.836 116.845 145.067 117.75 145.031 118.698C145 119.651 144.687 120.584 144.091 121.498C143.483 122.429 142.745 123.1 141.877 123.512C141.01 123.923 140.084 124.077 139.101 123.973C138.118 123.869 137.144 123.506 136.179 122.882C135.203 122.252 134.466 121.506 133.969 120.645C133.473 119.794 133.238 118.89 133.262 117.934C133.293 116.982 133.61 116.043 134.213 115.117ZM135.92 116.22C135.339 117.111 135.206 117.969 135.522 118.793C135.84 119.628 136.475 120.353 137.428 120.968C138.404 121.599 139.33 121.879 140.206 121.807C141.084 121.745 141.81 121.275 142.384 120.395C142.778 119.792 142.963 119.205 142.941 118.635C142.925 118.069 142.736 117.534 142.374 117.031C142.019 116.532 141.523 116.077 140.888 115.667C139.906 115.032 138.974 114.749 138.092 114.817C137.211 114.884 136.487 115.352 135.92 116.22Z" fill="white"/>
<path d="M126.544 124.701C127.271 123.961 128.084 123.502 128.983 123.322C129.877 123.147 130.786 123.222 131.71 123.546C132.634 123.879 133.495 124.434 134.293 125.21C135.096 125.991 135.668 126.835 136.009 127.742C136.356 128.654 136.446 129.557 136.281 130.45C136.116 131.353 135.668 132.177 134.936 132.922C134.199 133.672 133.396 134.122 132.526 134.272C131.656 134.432 130.776 134.333 129.885 133.975C128.99 133.621 128.144 133.057 127.346 132.281C126.548 131.505 125.962 130.675 125.586 129.793C125.211 128.91 125.089 128.03 125.22 127.151C125.357 126.277 125.798 125.461 126.544 124.701ZM127.731 126.272C127.235 126.777 126.951 127.306 126.879 127.859C126.808 128.413 126.911 128.969 127.19 129.528C127.47 130.087 127.885 130.634 128.436 131.171C128.988 131.707 129.55 132.106 130.123 132.366C130.691 132.631 131.247 132.721 131.791 132.638C132.331 132.559 132.837 132.279 133.309 131.799C133.809 131.29 134.095 130.749 134.167 130.176C134.238 129.603 134.142 129.03 133.877 128.457C133.608 127.888 133.212 127.35 132.69 126.842C132.163 126.329 131.608 125.943 131.026 125.683C130.443 125.433 129.87 125.345 129.306 125.419C128.737 125.498 128.212 125.783 127.731 126.272ZM124.44 127.283L130.18 132.867L130.353 132.69L135.25 137.454L133.734 138.998L123.097 128.651L124.44 127.283Z" fill="white"/>
<path d="M117.701 132.329C118.379 131.86 119.034 131.591 119.665 131.522C120.3 131.458 120.88 131.55 121.404 131.797C121.927 132.053 122.361 132.429 122.707 132.924C123.029 133.385 123.23 133.847 123.309 134.31C123.389 134.772 123.352 135.235 123.198 135.7C123.049 136.171 122.792 136.644 122.429 137.121C122.104 137.52 121.716 137.943 121.264 138.389C120.812 138.835 120.331 139.292 119.821 139.762C119.304 140.236 118.794 140.705 118.289 141.171L118.686 140.371C119.174 141.093 119.696 141.517 120.252 141.641C120.807 141.775 121.466 141.578 122.229 141.051C122.71 140.718 123.073 140.301 123.317 139.798C123.566 139.301 123.59 138.742 123.391 138.12L125.399 137.483C125.719 138.422 125.723 139.341 125.412 140.24C125.095 141.143 124.408 141.961 123.35 142.692C122.53 143.258 121.719 143.61 120.917 143.747C120.114 143.894 119.361 143.763 118.657 143.357C118.302 143.16 117.992 142.907 117.726 142.599C117.46 142.29 117.194 141.945 116.926 141.562L113.007 135.948L114.577 134.863L116.033 136.948L115.539 136.889C115.43 135.93 115.551 135.075 115.899 134.325C116.246 133.585 116.847 132.919 117.701 132.329ZM118.394 133.99C117.891 134.337 117.519 134.724 117.279 135.148C117.043 135.579 116.911 136.008 116.883 136.436C116.854 136.864 116.911 137.251 117.051 137.596C117.143 137.933 117.302 138.274 117.526 138.619C117.745 138.969 117.925 139.245 118.066 139.447L117.342 139.635C117.843 139.164 118.299 138.736 118.71 138.352C119.121 137.968 119.49 137.613 119.816 137.287C120.14 136.971 120.415 136.668 120.641 136.379C120.825 136.127 120.972 135.875 121.082 135.624C121.186 135.376 121.236 135.129 121.231 134.882C121.221 134.639 121.131 134.397 120.962 134.155C120.797 133.918 120.585 133.74 120.324 133.619C120.068 133.504 119.777 133.472 119.451 133.522C119.126 133.572 118.773 133.728 118.394 133.99Z" fill="white"/>
<path d="M107.279 133.324L107.733 139.538L106.99 137.977L116.355 146.838L114.303 147.761L107.181 140.869L107.784 140.598L108.43 150.403L106.434 151.301L105.406 134.166L107.279 133.324Z" fill="white"/>
<path d="M93.4696 151.147L95.1973 152.021L93.9447 154.153L96.4268 154.441L96.1222 156.351L93.6849 155.817L94.1974 158.265L92.2789 158.565L92.0113 156.079L89.8463 157.333L88.9671 155.608L91.2507 154.574L89.401 152.929L90.7756 151.569L92.4436 153.389L93.4696 151.147Z" fill="white"/>
<path d="M71.01 143.781C71.9987 143.92 72.8849 144.218 73.6686 144.674C74.4513 145.137 75.1027 145.741 75.6228 146.486C76.143 147.23 76.5064 148.098 76.7133 149.089C76.9201 150.08 76.9382 151.176 76.7674 152.377C76.5427 153.958 76.0599 155.274 75.3192 156.326C74.5775 157.384 73.6485 158.146 72.532 158.612C71.4145 159.084 70.1842 159.226 68.8408 159.037C67.1089 158.793 65.7849 158.198 64.8691 157.253C63.9465 156.306 63.398 155.101 63.2236 153.637L65.447 153.555C65.6226 154.473 66.0074 155.24 66.6013 155.856C67.1953 156.473 67.9964 156.856 69.0046 157.004C70.0469 157.158 70.9492 157.05 71.7112 156.679C72.4665 156.308 73.0783 155.723 73.5467 154.924C74.0141 154.132 74.3308 153.176 74.4968 152.058C74.6628 150.939 74.6317 149.935 74.4035 149.044C74.1744 148.161 73.7454 147.436 73.1164 146.87C72.4807 146.303 71.6416 145.943 70.5993 145.789C69.7625 145.657 69.0214 145.709 68.376 145.943C67.7228 146.183 67.1745 146.591 66.7312 147.165C66.2879 147.739 65.9504 148.474 65.7189 149.369L68.5828 149.772L68.3397 151.482L63.2051 150.759C63.2088 150.635 63.2217 150.47 63.2439 150.266C63.265 150.068 63.2795 149.942 63.2872 149.888C63.4801 148.531 63.9148 147.357 64.5914 146.365C65.2679 145.374 66.1507 144.644 67.2399 144.174C68.3282 143.711 69.5848 143.58 71.01 143.781Z" fill="white"/>
<path d="M56.845 140.158C57.8827 140.547 58.7098 141.113 59.3264 141.856C59.934 142.603 60.3042 143.463 60.4369 144.435C60.5607 145.412 60.42 146.435 60.0149 147.506C59.5856 148.641 59.0005 149.546 58.2598 150.221C57.5126 150.893 56.6694 151.313 55.7302 151.481C54.7909 151.649 53.8121 151.542 52.7937 151.161C51.7302 150.763 50.918 150.177 50.3571 149.403C49.7938 148.636 49.4995 147.731 49.4741 146.689C49.4423 145.645 49.7004 144.515 50.2483 143.3L52.2689 144.057L51.9924 144.788C51.5493 145.998 51.4441 146.977 51.677 147.723C51.9034 148.466 52.4743 149.01 53.3895 149.352C54.4015 149.731 55.2821 149.699 56.0314 149.254C56.7808 148.81 57.3822 147.988 57.8358 146.789C58.2676 145.648 58.3477 144.667 58.0763 143.848C57.8024 143.035 57.1852 142.449 56.2249 142.089C55.5932 141.853 54.9952 141.79 54.4308 141.901C53.8576 142.016 53.3414 142.291 52.8823 142.727L51.1368 141.359C51.8946 140.581 52.783 140.09 53.8021 139.886C54.8187 139.689 55.833 139.779 56.845 140.158ZM58.7079 146.468L58.1149 148.036L50.6607 145.244L51.2538 143.676L58.7079 146.468Z" fill="white"/>
<path d="M44.397 134.343C45.0772 134.565 45.7068 134.849 46.2856 135.195C46.8645 135.541 47.3265 135.947 47.6715 136.414C48.0165 136.881 48.1801 137.404 48.1623 137.983C48.1473 138.501 48.0327 138.971 47.8187 139.394C47.5953 139.819 47.3356 140.295 47.0397 140.821L42.2219 149.387L40.3288 148.333L45.0962 139.856C45.3148 139.468 45.5018 139.128 45.6572 138.838C45.8066 138.544 45.8797 138.267 45.8765 138.006C45.8687 137.515 45.6455 137.112 45.207 136.797C44.7592 136.485 44.1915 136.196 43.504 135.931L44.397 134.343ZM46.4489 146.228L45.6013 147.735L38.9486 144.03L39.7961 142.524L46.4489 146.228Z" fill="white"/>
<path d="M35.217 126.502C35.99 127.234 36.5623 128.027 36.9339 128.881C37.2958 129.735 37.4436 130.599 37.3773 131.473C37.3013 132.347 36.9978 133.181 36.4668 133.974L34.601 132.674C35.0633 131.864 35.2085 131.026 35.0363 130.163C34.8594 129.305 34.4219 128.544 33.7237 127.883C33.2899 127.472 32.8268 127.161 32.3345 126.95C31.8375 126.744 31.3581 126.663 30.8965 126.708C30.4251 126.754 30.0184 126.955 29.6765 127.312C29.4912 127.506 29.3623 127.71 29.2896 127.925C29.2119 128.135 29.1807 128.352 29.1959 128.574C29.2013 128.797 29.2509 129.029 29.3444 129.269C29.4282 129.509 29.5414 129.753 29.6839 130.002L31.6675 133.429C31.8608 133.764 32.0377 134.125 32.1983 134.514C32.354 134.908 32.4517 135.317 32.4914 135.743C32.5213 136.169 32.4637 136.601 32.3186 137.041C32.1687 137.486 31.8848 137.926 31.4669 138.363C30.8352 139.023 30.1313 139.421 29.3552 139.556C28.5694 139.691 27.7731 139.599 26.9664 139.279C26.155 138.964 25.3877 138.464 24.6646 137.779C23.946 137.079 23.4188 136.333 23.0827 135.542C22.7417 134.746 22.605 133.935 22.6724 133.109C22.7302 132.284 23.0026 131.473 23.4897 130.676L25.436 131.981C25.1261 132.453 24.9555 132.95 24.9244 133.469C24.8885 133.993 24.974 134.5 25.1809 134.989C25.3829 135.484 25.6886 135.929 26.0977 136.327C26.4872 136.715 26.9107 137.003 27.3683 137.19C27.8209 137.373 28.2586 137.442 28.6813 137.398C29.099 137.349 29.4527 137.174 29.7425 136.871C30.0274 136.573 30.1705 136.25 30.1717 135.901C30.1729 135.552 30.0986 135.202 29.9488 134.852C29.7892 134.502 29.6155 134.172 29.4277 133.861L27.9722 131.417C27.7894 131.112 27.5979 130.75 27.3977 130.334C27.1878 129.917 27.0354 129.465 26.9407 128.978C26.841 128.486 26.8601 127.974 26.9981 127.442C27.1313 126.916 27.4473 126.392 27.946 125.871C28.4637 125.33 29.0294 124.958 29.643 124.754C30.2519 124.555 30.8814 124.498 31.5313 124.584C32.1716 124.671 32.8075 124.881 33.4392 125.214C34.0709 125.548 34.6635 125.977 35.217 126.502Z" fill="white"/>
<path d="M25.5632 115.689C26.0982 116.162 26.5619 116.672 26.9543 117.219C27.3467 117.766 27.6075 118.322 27.737 118.887C27.8664 119.452 27.8069 119.996 27.5586 120.52C27.3375 120.989 27.0441 121.375 26.6785 121.678C26.3033 121.979 25.8746 122.313 25.3924 122.678L17.5427 128.623L16.2287 126.906L23.9962 121.023C24.3524 120.753 24.6599 120.516 24.9187 120.311C25.1734 120.101 25.3515 119.875 25.4531 119.635C25.6427 119.181 25.5994 118.723 25.3234 118.26C25.0377 117.796 24.6327 117.307 24.1083 116.791L25.5632 115.689ZM22.6846 127.403L21.3038 128.449L16.686 122.413L18.0669 121.367L22.6846 127.403Z" fill="white"/>
<path d="M23.8773 112.124C24.2765 112.844 24.4781 113.52 24.4822 114.151C24.4802 114.786 24.329 115.35 24.0285 115.844C23.7187 116.335 23.2984 116.726 22.7677 117.017C22.2733 117.289 21.7908 117.44 21.3205 117.471C20.8502 117.502 20.3906 117.418 19.9417 117.218C19.4867 117.022 19.0398 116.72 18.6009 116.311C18.2348 115.948 17.8522 115.521 17.453 115.028C17.0538 114.535 16.6457 114.011 16.2287 113.457C15.8083 112.898 15.3912 112.344 14.9775 111.796L15.7366 112.272C14.9641 112.68 14.4871 113.153 14.3055 113.691C14.1146 114.226 14.2436 114.899 14.6927 115.709C14.9754 116.219 15.3555 116.621 15.8328 116.915C16.3042 117.212 16.8608 117.293 17.5027 117.16L17.9329 119.213C16.9616 119.433 16.0425 119.343 15.1755 118.942C14.3051 118.536 13.5589 117.771 12.9369 116.649C12.4546 115.779 12.1863 114.94 12.1319 114.133C12.0681 113.323 12.2757 112.591 12.7546 111.936C12.9878 111.605 13.2722 111.324 13.6081 111.092C13.9439 110.861 14.3168 110.633 14.7269 110.408L20.7421 107.107L21.6651 108.772L19.4309 109.998L19.5407 109.515C20.5113 109.507 21.3535 109.713 22.0673 110.136C22.7717 110.555 23.3751 111.218 23.8773 112.124ZM22.146 112.64C21.8499 112.106 21.502 111.698 21.1022 111.417C20.6963 111.138 20.2808 110.964 19.8556 110.892C19.4304 110.82 19.038 110.836 18.6785 110.939C18.3325 110.996 17.9753 111.118 17.6068 111.304C17.235 111.485 16.9406 111.635 16.7235 111.754L16.6103 111.018C17.0301 111.562 17.4109 112.057 17.7527 112.504C18.0944 112.95 18.4113 113.351 18.7032 113.708C18.9857 114.061 19.26 114.364 19.5262 114.618C19.7597 114.826 19.9963 114.997 20.236 115.132C20.4724 115.26 20.7143 115.335 20.9617 115.356C21.2058 115.37 21.4575 115.307 21.7168 115.164C21.9701 115.025 22.1704 114.833 22.3176 114.588C22.4588 114.346 22.5212 114.061 22.5048 113.734C22.4884 113.406 22.3688 113.042 22.146 112.64Z" fill="white"/>
<path d="M19.7099 104.442L9.21679 108.213L8.56408 106.414L11.1096 105.5L10.8705 105.87C10.4869 105.862 10.1184 105.805 9.76505 105.699C9.40519 105.595 9.08544 105.44 8.80582 105.235C8.51559 105.04 8.26017 104.801 8.03956 104.516C7.81013 104.227 7.62371 103.915 7.48028 103.58C7.33038 103.248 7.22726 102.913 7.17092 102.577L9.07523 101.892C9.10854 102.266 9.22066 102.656 9.41159 103.061C9.60018 103.459 9.87099 103.792 10.224 104.058C10.5571 104.31 10.9109 104.478 11.2855 104.562C11.6578 104.64 12.047 104.653 12.4531 104.602C12.8527 104.553 13.2598 104.454 13.6743 104.305L18.9695 102.402L19.7099 104.442Z" fill="white"/>
<path d="M15.6401 90.3524C15.9336 91.0021 16.1469 91.6562 16.2799 92.3149C16.413 92.9736 16.4223 93.5871 16.3079 94.1553C16.1934 94.7236 15.9152 95.1962 15.4731 95.5731C15.0784 95.9109 14.652 96.1434 14.1939 96.2707C13.7276 96.3929 13.1993 96.5225 12.609 96.6593L3.00108 98.8868L2.5088 96.7846L12.0161 94.5804C12.4521 94.4794 12.8303 94.3882 13.1507 94.3069C13.4695 94.2189 13.7247 94.0858 13.9163 93.9077C14.2759 93.571 14.425 93.1354 14.3634 92.6009C14.2936 92.0612 14.1256 91.4494 13.8593 90.7653L15.6401 90.3524ZM8.19473 99.8674L6.50453 100.259L4.77453 92.8715L6.46472 92.4797L8.19473 99.8674Z" fill="white"/>
<path d="M15.4742 84.965C15.5643 86.0646 15.4033 87.0505 14.9911 87.9227C14.5716 88.7886 13.9484 89.4889 13.1216 90.0235C12.2874 90.5519 11.2971 90.8626 10.1508 90.9556C8.9359 91.0542 7.8638 90.9144 6.93453 90.536C6.0047 90.1508 5.2628 89.5717 4.70883 88.7985C4.15486 88.0253 3.83364 87.0992 3.74518 86.0201C3.65279 84.8932 3.83839 83.9121 4.30197 83.077C4.75869 82.2424 5.455 81.5912 6.3909 81.1234C7.32625 80.6487 8.46309 80.3983 9.80142 80.3722L9.97695 82.5133L9.19446 82.5768C7.90515 82.6952 6.97121 83.0185 6.39264 83.5467C5.81352 84.0681 5.56371 84.8137 5.64321 85.7835C5.73112 86.8558 6.13695 87.6341 6.86072 88.1185C7.58448 88.6029 8.58815 88.793 9.87171 88.6888C11.0935 88.5897 12.0186 88.243 12.6471 87.6489C13.2686 87.0553 13.5377 86.2497 13.4543 85.2321C13.3994 84.5627 13.2011 83.9979 12.8593 83.5375C12.5101 83.0708 12.0395 82.724 11.4474 82.4971L11.9444 80.3426C12.975 80.6921 13.8007 81.2817 14.4215 82.1113C15.0354 82.9415 15.3863 83.8927 15.4742 84.965ZM10.5363 89.3362L8.85804 89.4724L8.21052 81.5738L9.88877 81.4376L10.5363 89.3362Z" fill="white"/>
<path d="M15.6635 73.036C15.5446 74.0639 15.1852 74.9229 14.5854 75.6129C13.9864 76.2962 13.222 76.7914 12.2922 77.0987C11.3563 77.3985 10.3342 77.4848 9.22586 77.3579C8.11068 77.2301 7.13887 76.9118 6.31042 76.403C5.47513 75.8935 4.84767 75.2353 4.42805 74.4284C4.00239 73.614 3.84943 72.6895 3.96918 71.6547C4.08971 70.6132 4.44751 69.7678 5.04256 69.1187C5.63156 68.4619 6.38821 68.0037 7.31253 67.744C8.23764 67.4775 9.25436 67.4078 10.3627 67.5348C11.471 67.6617 12.4452 67.9596 13.2852 68.4283C14.1252 68.897 14.7639 69.5186 15.2011 70.2929C15.6315 71.0665 15.7857 71.9809 15.6635 73.036ZM13.7582 72.5177C13.8394 71.8165 13.7379 71.2255 13.4539 70.7446C13.1699 70.2637 12.7455 69.8874 12.1807 69.6158C11.616 69.3442 10.9505 69.1644 10.1843 69.0766C9.41799 68.9888 8.72847 69.0168 8.11567 69.1604C7.50366 69.2972 7.00825 69.5646 6.62943 69.9627C6.2514 70.3539 6.02378 70.8831 5.94658 71.5502C5.86464 72.2582 5.97174 72.8602 6.26788 73.3563C6.56402 73.8523 6.99327 74.2464 7.55565 74.5385C8.11881 74.8237 8.763 75.0079 9.48821 75.091C10.2203 75.1749 10.8965 75.142 11.5169 74.9923C12.1313 74.8351 12.6385 74.5552 13.0387 74.1527C13.4396 73.7434 13.6794 73.1984 13.7582 72.5177ZM15.7362 69.7128L7.76233 68.7991L7.73397 69.0442L0.930027 68.2646L1.17819 66.1203L15.956 67.8135L15.7362 69.7128Z" fill="white"/>
<path d="M19.8543 55.4008L8.03687 50.4034L6.10143 54.9346L4.22852 54.1426L8.94389 43.1031L10.8168 43.8951L8.88136 48.4263L20.6988 53.4237L19.8543 55.4008Z" fill="white"/>
<path d="M26.3879 43.9688C25.7634 44.8887 25.0135 45.5466 24.1382 45.9423C23.2629 46.338 22.3347 46.475 21.3537 46.3532C20.3708 46.2218 19.3999 45.8339 18.4412 45.1896C17.4767 44.5414 16.7564 43.7844 16.2804 42.9187C15.7986 42.0492 15.5844 41.1404 15.638 40.1923C15.6858 39.2404 16.0161 38.313 16.629 37.4102C17.2535 36.4903 18.0034 35.8324 18.8787 35.4367C19.754 35.041 20.6822 34.904 21.6632 35.0258C22.6443 35.1477 23.6113 35.5289 24.5644 36.1694C25.5288 36.8176 26.252 37.5765 26.7338 38.446C27.2137 39.306 27.4326 40.2139 27.3905 41.1696C27.3427 42.1215 27.0085 43.0546 26.3879 43.9688ZM24.7015 42.8354C25.2989 41.9553 25.4474 41.1 25.1468 40.2695C24.8444 39.4296 24.2224 38.6932 23.2808 38.0603C22.3163 37.4121 21.3955 37.1158 20.5185 37.1713C19.6395 37.2173 18.9052 37.6748 18.3154 38.5436C17.9107 39.1398 17.7142 39.723 17.726 40.2933C17.7321 40.8597 17.9113 41.3976 18.2634 41.9072C18.6099 42.4129 19.097 42.8768 19.7248 43.2987C20.695 43.9507 21.6214 44.2509 22.5042 44.1992C23.387 44.1475 24.1194 43.6929 24.7015 42.8354Z" fill="white"/>
<path d="M34.2306 34.5208C33.4902 35.2474 32.669 35.6924 31.767 35.8558C30.8698 36.0144 29.9623 35.9234 29.0442 35.5828C28.1262 35.2325 27.2755 34.6621 26.4921 33.8718C25.7038 33.0766 25.1473 32.2224 24.8225 31.3092C24.4928 30.3912 24.4187 29.487 24.6002 28.5966C24.7817 27.6966 25.2451 26.8809 25.9904 26.1495C26.7406 25.4133 27.552 24.9779 28.4246 24.8434C29.2973 24.6991 30.1755 24.8142 31.0592 25.1885C31.9478 25.558 32.7839 26.1379 33.5673 26.9282C34.3507 27.7186 34.922 28.5583 35.2811 29.4475C35.6402 30.3367 35.7461 31.2193 35.5988 32.0953C35.4466 32.9665 34.9906 33.775 34.2306 34.5208ZM33.0729 32.9284C33.5779 32.4328 33.8713 31.9091 33.953 31.3572C34.0347 30.8054 33.9412 30.2475 33.6724 29.6836C33.4036 29.1197 32.9984 28.5645 32.4567 28.0181C31.9151 27.4717 31.3603 27.0633 30.7924 26.7929C30.2294 26.5177 29.675 26.417 29.1291 26.4908C28.588 26.5598 28.0773 26.83 27.5968 27.3016C27.0868 27.8021 26.7909 28.3379 26.7091 28.9091C26.6272 29.4803 26.7133 30.0551 26.9674 30.6334C27.2264 31.207 27.6122 31.7523 28.1248 32.2694C28.6423 32.7915 29.1898 33.1877 29.7675 33.4582C30.3452 33.7189 30.9167 33.8173 31.482 33.7534C32.0523 33.6846 32.5826 33.4096 33.0729 32.9284ZM36.3812 31.9771L30.7448 26.2911L30.5683 26.4643L25.7588 21.6125L27.3033 20.0968L37.7492 30.6346L36.3812 31.9771Z" fill="white"/>
<path d="M43.2149 27.0534C42.5277 27.5101 41.8679 27.7672 41.2358 27.8247C40.5998 27.8765 40.0219 27.7743 39.5021 27.5182C38.9843 27.2525 38.5571 26.869 38.2205 26.3675C37.9069 25.9002 37.7146 25.4348 37.6435 24.9711C37.5725 24.5074 37.6179 24.0446 37.7799 23.5827C37.9381 23.115 38.2032 22.6463 38.5753 22.1766C38.9073 21.7829 39.3033 21.3673 39.7633 20.9298C40.2232 20.4924 40.7128 20.0434 41.2319 19.5831C41.7568 19.119 42.276 18.6586 42.7894 18.2021L42.3775 18.9949C41.9032 18.2636 41.3891 17.8307 40.835 17.6962C40.2829 17.5522 39.6203 17.7371 38.8471 18.2509C38.3603 18.5743 37.9901 18.9851 37.7365 19.4833C37.479 19.9757 37.4441 20.5345 37.6318 21.1596L35.6124 21.7599C35.3099 20.8156 35.3225 19.8967 35.6503 19.0032C35.9838 18.1059 36.6861 17.3014 37.757 16.5897C38.5875 16.0379 39.4047 15.7009 40.2087 15.5786C41.0147 15.4468 41.7654 15.5906 42.461 16.0101C42.8126 16.2132 43.1185 16.4714 43.3785 16.7848C43.6385 17.0981 43.8986 17.4486 44.1586 17.8361L47.9738 23.5203L46.3845 24.5764L44.9675 22.4651L45.4603 22.5331C45.5509 23.4947 45.415 24.3472 45.0527 25.0906C44.6923 25.8245 44.0797 26.4787 43.2149 27.0534ZM42.5517 25.3805C43.0614 25.0418 43.4403 24.6624 43.6882 24.2421C43.9324 23.8162 44.0724 23.3895 44.1084 22.9618C44.1443 22.5342 44.0953 22.1465 43.9613 21.7988C43.8751 21.4606 43.7229 21.1167 43.5049 20.7672C43.2926 20.4139 43.1176 20.1346 42.9799 19.9295L43.7075 19.755C43.1979 20.2172 42.7341 20.6367 42.3161 21.0133C41.8981 21.39 41.5231 21.7381 41.191 22.0576C40.8608 22.3677 40.5803 22.6653 40.3494 22.9506C40.1605 23.1997 40.0088 23.4488 39.8944 23.6978C39.7858 23.9431 39.7315 24.1893 39.7317 24.4363C39.7376 24.6796 39.8228 24.9237 39.9873 25.1688C40.1479 25.4081 40.3572 25.5904 40.6152 25.7156C40.8693 25.8351 41.1597 25.8729 41.4863 25.8289C41.8129 25.785 42.168 25.6355 42.5517 25.3805Z" fill="white"/>
<path d="M53.6574 26.2455L53.3191 20.0241L54.0331 21.5983L44.834 12.5664L46.9028 11.6813L53.8954 18.7034L53.288 18.9633L52.8247 9.14782L54.8366 8.28709L55.546 25.4376L53.6574 26.2455Z" fill="white"/>
<path d="M67.7787 8.68629L66.0673 7.78102L67.3586 5.67268L64.8822 5.33995L65.2217 3.43562L67.6488 4.01381L67.1811 1.55674L69.1048 1.29125L69.3269 3.78221L71.5145 2.56711L72.362 4.30762L70.0599 5.29985L71.8792 6.97888L70.48 8.31346L68.8455 6.46365L67.7787 8.68629Z" fill="white"/>
</svg>
