<svg width="24" height="25" viewBox="0 0 24 25" fill="none" xmlns="http://www.w3.org/2000/svg">
<path d="M7.71408 22.3979C11.5012 22.3979 14.5712 19.3278 14.5712 15.5407C14.5712 11.7536 11.5012 8.68359 7.71408 8.68359C3.92698 8.68359 0.856934 11.7536 0.856934 15.5407C0.856934 19.3278 3.92698 22.3979 7.71408 22.3979Z" stroke="white" stroke-linecap="round" stroke-linejoin="round"/>
<path d="M16.2854 22.3979C20.0725 22.3979 23.1425 19.3278 23.1425 15.5407C23.1425 11.7536 20.0725 8.68359 16.2854 8.68359C12.4983 8.68359 9.42822 11.7536 9.42822 15.5407C9.42822 19.3278 12.4983 22.3979 16.2854 22.3979Z" stroke="white" stroke-linecap="round" stroke-linejoin="round"/>
<path d="M11.9997 15.5405C15.7868 15.5405 18.8569 12.4704 18.8569 8.68331C18.8569 4.89622 15.7868 1.82617 11.9997 1.82617C8.21263 1.82617 5.14258 4.89622 5.14258 8.68331C5.14258 12.4704 8.21263 15.5405 11.9997 15.5405Z" stroke="white" stroke-linecap="round" stroke-linejoin="round"/>
</svg>
