<svg width="60" height="60" viewBox="0 0 60 60" fill="none" xmlns="http://www.w3.org/2000/svg">
<path d="M30 42.9414V47.27" stroke="white" stroke-width="1.5" stroke-linecap="round" stroke-linejoin="round"/>
<path d="M30 21.4707V25.4993" stroke="white" stroke-width="1.5" stroke-linecap="round" stroke-linejoin="round"/>
<path d="M29.9999 57.8137C44.9999 57.8137 55.7142 52.4994 55.7142 40.6708C55.7142 27.8137 49.2856 19.2422 36.4285 12.8137L41.4856 6.29939C41.7426 5.87197 41.8819 5.38424 41.8896 4.88561C41.8972 4.38699 41.7729 3.8952 41.5293 3.46009C41.2856 3.02498 40.9313 2.66203 40.5021 2.40802C40.073 2.154 39.5843 2.01796 39.0856 2.01367H20.9142C20.4155 2.01796 19.9269 2.154 19.4977 2.40802C19.0686 2.66203 18.7142 3.02498 18.4706 3.46009C18.2269 3.8952 18.1026 4.38699 18.1103 4.88561C18.1179 5.38424 18.2573 5.87197 18.5142 6.29939L23.5714 12.8565C10.7142 19.328 4.28564 27.8994 4.28564 40.7565C4.28564 52.4994 14.9999 57.8137 29.9999 57.8137Z" stroke="white" stroke-width="1.5" stroke-linecap="round" stroke-linejoin="round"/>
<path d="M25.7142 40.9704C26.2371 41.5911 26.8953 42.0838 27.6382 42.4107C28.3811 42.7376 29.189 42.8899 29.9999 42.8561C31.2394 42.9406 32.4633 42.5412 33.4144 41.742C34.3655 40.9427 34.9697 39.8059 35.0999 38.5704C34.9697 37.3349 34.3655 36.198 33.4144 35.3988C32.4633 34.5995 31.2394 34.2002 29.9999 34.2847C28.7604 34.3692 27.5365 33.9698 26.5854 33.1706C25.6343 32.3713 25.0301 31.2344 24.8999 29.999C25.0197 28.7591 25.6209 27.6157 26.5745 26.8144C27.5281 26.0131 28.758 25.6177 29.9999 25.7132C30.7966 25.6645 31.5941 25.793 32.3352 26.0894C33.0762 26.3858 33.7423 26.8428 34.2856 27.4275" stroke="white" stroke-width="1.5" stroke-linecap="round" stroke-linejoin="round"/>
</svg>
