<svg width="60" height="60" viewBox="0 0 60 60" fill="none" xmlns="http://www.w3.org/2000/svg">
<path d="M45.5999 6.59961H14.3999C13.6806 6.61936 12.9761 6.80811 12.3432 7.15059C11.7104 7.49307 11.167 7.97967 10.7571 8.57104L2.95709 19.371C2.3779 20.1895 2.08865 21.1779 2.13523 22.1795C2.18182 23.1811 2.56157 24.1384 3.21423 24.8996L26.6142 51.8568C27.0148 52.3729 27.5282 52.7907 28.115 53.0781C28.7018 53.3655 29.3465 53.5149 29.9999 53.5149C30.6533 53.5149 31.2981 53.3655 31.8849 53.0781C32.4717 52.7907 32.9851 52.3729 33.3857 51.8568L56.7857 24.8996C57.4383 24.1384 57.8181 23.1811 57.8646 22.1795C57.9112 21.1779 57.622 20.1895 57.0428 19.371L49.2428 8.57104C48.8328 7.97967 48.2895 7.49307 47.6566 7.15059C47.0238 6.80811 46.3192 6.61936 45.5999 6.59961V6.59961Z" stroke="white" stroke-width="1.5" stroke-linecap="round" stroke-linejoin="round"/>
<path d="M27.7716 6.55664L17.3145 22.7566L30.0002 53.3995" stroke="white" stroke-width="1.5" stroke-linecap="round" stroke-linejoin="round"/>
<path d="M32.3571 6.55664L42.7714 22.7566L30 53.3995" stroke="white" stroke-width="1.5" stroke-linecap="round" stroke-linejoin="round"/>
<path d="M2.22852 22.7559H57.7714" stroke="white" stroke-width="1.5" stroke-linecap="round" stroke-linejoin="round"/>
</svg>
