<svg width="30" height="31" viewBox="0 0 30 31" fill="none" xmlns="http://www.w3.org/2000/svg">
<path d="M9.64272 27.928C14.3766 27.928 18.2141 24.0905 18.2141 19.3566C18.2141 14.6227 14.3766 10.7852 9.64272 10.7852C4.90885 10.7852 1.07129 14.6227 1.07129 19.3566C1.07129 24.0905 4.90885 27.928 9.64272 27.928Z" stroke="white" stroke-width="1.5" stroke-linecap="round" stroke-linejoin="round"/>
<path d="M20.3571 27.928C25.0909 27.928 28.9285 24.0905 28.9285 19.3566C28.9285 14.6227 25.0909 10.7852 20.3571 10.7852C15.6232 10.7852 11.7856 14.6227 11.7856 19.3566C11.7856 24.0905 15.6232 27.928 20.3571 27.928Z" stroke="white" stroke-width="1.5" stroke-linecap="round" stroke-linejoin="round"/>
<path d="M14.9997 19.3577C19.7335 19.3577 23.5711 15.5201 23.5711 10.7863C23.5711 6.0524 19.7335 2.21484 14.9997 2.21484C10.2658 2.21484 6.42822 6.0524 6.42822 10.7863C6.42822 15.5201 10.2658 19.3577 14.9997 19.3577Z" stroke="white" stroke-width="1.5" stroke-linecap="round" stroke-linejoin="round"/>
</svg>
