<svg width="31" height="30" viewBox="0 0 31 30" fill="none" xmlns="http://www.w3.org/2000/svg">
<g clip-path="url(#clip0_692_92)">
<path d="M3.36551 12.8574H5.50837C5.79253 12.8574 6.06505 12.9703 6.26598 13.1712C6.46692 13.3722 6.5798 13.6447 6.5798 13.9289V19.286C6.5798 19.5702 6.46692 19.8427 6.26598 20.0436C6.06505 20.2445 5.79253 20.3574 5.50837 20.3574H3.36551C2.79719 20.3574 2.25215 20.1317 1.85028 19.7298C1.44842 19.3279 1.22266 18.7829 1.22266 18.2146V15.0003C1.22266 14.432 1.44842 13.8869 1.85028 13.4851C2.25215 13.0832 2.79719 12.8574 3.36551 12.8574V12.8574Z" stroke="white" stroke-linecap="round" stroke-linejoin="round"/>
<path d="M26.9367 20.3574H24.7939C24.5097 20.3574 24.2372 20.2445 24.0363 20.0436C23.8353 19.8427 23.7224 19.5702 23.7224 19.286V13.9289C23.7224 13.6447 23.8353 13.3722 24.0363 13.1712C24.2372 12.9703 24.5097 12.8574 24.7939 12.8574H26.9367C27.5051 12.8574 28.0501 13.0832 28.452 13.4851C28.8538 13.8869 29.0796 14.432 29.0796 15.0003V18.2146C29.0796 18.7829 28.8538 19.3279 28.452 19.7298C28.0501 20.1317 27.5051 20.3574 26.9367 20.3574V20.3574Z" stroke="white" stroke-linecap="round" stroke-linejoin="round"/>
<path d="M20.5088 26.2503C21.6454 26.2503 22.7355 25.7987 23.5392 24.995C24.343 24.1913 24.7945 23.1012 24.7945 21.9646V20.3574" stroke="white" stroke-linecap="round" stroke-linejoin="round"/>
<path d="M17.8299 23.5703C18.5403 23.5703 19.2216 23.8525 19.7239 24.3548C20.2262 24.8572 20.5084 25.5385 20.5084 26.2489C20.5084 26.9593 20.2262 27.6406 19.7239 28.1429C19.2216 28.6452 18.5403 28.9275 17.8299 28.9275H14.6156C13.9052 28.9275 13.2239 28.6452 12.7215 28.1429C12.2192 27.6406 11.937 26.9593 11.937 26.2489C11.937 25.5385 12.2192 24.8572 12.7215 24.3548C13.2239 23.8525 13.9052 23.5703 14.6156 23.5703H17.8299Z" stroke="white" stroke-linecap="round" stroke-linejoin="round"/>
<path d="M5.5083 12.856V10.7132C5.5083 8.15573 6.52424 5.70303 8.33263 3.89464C10.141 2.08625 12.5937 1.07031 15.1512 1.07031C17.7086 1.07031 20.1613 2.08625 21.9697 3.89464C23.7781 5.70303 24.794 8.15573 24.794 10.7132V12.856" stroke="white" stroke-linecap="round" stroke-linejoin="round"/>
<path d="M11.937 8.57031V11.7846" stroke="white" stroke-linecap="round" stroke-linejoin="round"/>
<path d="M18.3657 8.57031V11.7846" stroke="white" stroke-linecap="round" stroke-linejoin="round"/>
<path d="M11.937 16.0703C11.937 18.9203 18.3656 18.9203 18.3656 16.0703" stroke="white" stroke-linecap="round" stroke-linejoin="round"/>
</g>
<defs>
<clipPath id="clip0_692_92">
<rect width="30" height="30" fill="white" transform="translate(0.151367)"/>
</clipPath>
</defs>
</svg>
