<svg width="30" height="30" viewBox="0 0 30 30" fill="none" xmlns="http://www.w3.org/2000/svg">
<g clip-path="url(#clip0_415_14)">
<path d="M18.7671 27.8571C20.0867 28.7084 21.6592 29.0794 23.2202 28.9077C24.7812 28.736 26.2355 28.032 27.3385 26.9142L28.3028 25.9713C28.7255 25.5389 28.9622 24.9582 28.9622 24.3535C28.9622 23.7488 28.7255 23.168 28.3028 22.7356L24.2099 18.6856C23.7811 18.2642 23.204 18.0281 22.6028 18.0281C22.0016 18.0281 21.4244 18.2642 20.9956 18.6856V18.6856C20.5632 19.1084 19.9825 19.3451 19.3778 19.3451C18.7731 19.3451 18.1923 19.1084 17.7599 18.6856L11.3314 12.2571C11.1169 12.0457 10.9466 11.7939 10.8304 11.5161C10.7141 11.2384 10.6543 10.9403 10.6543 10.6392C10.6543 10.3381 10.7141 10.04 10.8304 9.76229C10.9466 9.48454 11.1169 9.23268 11.3314 9.02134V9.02134C11.7528 8.59255 11.9889 8.0154 11.9889 7.4142C11.9889 6.813 11.7528 6.23585 11.3314 5.80706L7.25993 1.73563C6.82752 1.31288 6.24681 1.07617 5.64208 1.07617C5.03734 1.07617 4.45663 1.31288 4.02422 1.73563L3.08136 2.69991C1.96353 3.80293 1.25958 5.25721 1.08787 6.8182C0.916161 8.3792 1.28717 9.95172 2.13851 11.2713C6.57432 17.8086 12.2184 23.4381 18.7671 27.8571V27.8571Z" stroke="url(#paint0_linear_415_14)" stroke-width="1.5" stroke-linecap="round" stroke-linejoin="round"/>
</g>
<defs>
<linearGradient id="paint0_linear_415_14" x1="1.04688" y1="15.0124" x2="28.9622" y2="15.0124" gradientUnits="userSpaceOnUse">
<stop stop-color="#386BB7"/>
<stop offset="1" stop-color="#E24C4A"/>
</linearGradient>
<clipPath id="clip0_415_14">
<rect width="30" height="30" fill="white"/>
</clipPath>
</defs>
</svg>
