<svg width="30" height="30" viewBox="0 0 30 30" fill="none" xmlns="http://www.w3.org/2000/svg">
<g clip-path="url(#clip0_506_209)">
<path d="M18.1431 20.2874C18.7114 20.2874 19.2564 20.0616 19.6583 19.6598C20.0602 19.2579 20.2859 18.7129 20.2859 18.1445" stroke="white" stroke-width="1.5" stroke-linecap="round" stroke-linejoin="round"/>
<path d="M9.57129 20.2852H12.7856" stroke="white" stroke-width="1.5" stroke-linecap="round" stroke-linejoin="round"/>
<path d="M20.2856 9.57031V12.7846" stroke="white" stroke-width="1.5" stroke-linecap="round" stroke-linejoin="round"/>
<path d="M11.7141 9.57031C11.1458 9.57031 10.6008 9.79608 10.1989 10.1979C9.79705 10.5998 9.57129 11.1448 9.57129 11.7132" stroke="white" stroke-width="1.5" stroke-linecap="round" stroke-linejoin="round"/>
<path d="M1 3.14286C1 2.57454 1.22576 2.02949 1.62763 1.62763C2.02949 1.22576 2.57454 1 3.14286 1H18.1429C18.7112 1 19.2562 1.22576 19.6581 1.62763C20.0599 2.02949 20.2857 2.57454 20.2857 3.14286V9.57143H26.7143C27.2826 9.57143 27.8276 9.79719 28.2295 10.1991C28.6314 10.6009 28.8571 11.146 28.8571 11.7143V26.7143C28.8571 27.2826 28.6314 27.8276 28.2295 28.2295C27.8276 28.6314 27.2826 28.8571 26.7143 28.8571H11.7143C11.146 28.8571 10.6009 28.6314 10.1991 28.2295C9.79719 27.8276 9.57143 27.2826 9.57143 26.7143V20.2857H3.14286C2.57454 20.2857 2.02949 20.0599 1.62763 19.6581C1.22576 19.2562 1 18.7112 1 18.1429V3.14286Z" stroke="white" stroke-width="1.5" stroke-linecap="round" stroke-linejoin="round"/>
<path d="M17.0713 9.57031H20.2856" stroke="white" stroke-width="1.5" stroke-linecap="round" stroke-linejoin="round"/>
<path d="M9.57129 17.0703V20.2846" stroke="white" stroke-width="1.5" stroke-linecap="round" stroke-linejoin="round"/>
</g>
<defs>
<clipPath id="clip0_506_209">
<rect width="30" height="30" fill="white"/>
</clipPath>
</defs>
</svg>
