<svg width="31" height="30" viewBox="0 0 31 30" fill="none" xmlns="http://www.w3.org/2000/svg">
<g clip-path="url(#clip0_692_103)">
<path d="M16.1582 14.7874C15.8403 14.9254 15.4975 14.9966 15.151 14.9966C14.8045 14.9966 14.4617 14.9254 14.1439 14.7874L1.92961 9.13021C1.73127 9.03018 1.56459 8.87704 1.44814 8.68788C1.33168 8.49871 1.27002 8.28093 1.27002 8.05878C1.27002 7.83664 1.33168 7.61886 1.44814 7.42969C1.56459 7.24053 1.73127 7.0874 1.92961 6.98736L14.1439 1.28736C14.4617 1.14934 14.8045 1.07812 15.151 1.07812C15.4975 1.07813 15.8403 1.14934 16.1582 1.28736L28.3725 6.9445C28.5708 7.04454 28.7375 7.19767 28.8539 7.38684C28.9704 7.57601 29.0321 7.79379 29.0321 8.01593C29.0321 8.23807 28.9704 8.45585 28.8539 8.64502C28.7375 8.83419 28.5708 8.98732 28.3725 9.08736L16.1582 14.7874Z" stroke="white" stroke-width="1.5" stroke-linecap="round" stroke-linejoin="round"/>
<path d="M29.0798 15.75L16.0084 21.7714C15.7292 21.8988 15.4259 21.9647 15.1191 21.9647C14.8122 21.9647 14.509 21.8988 14.2298 21.7714L1.22266 15.75" stroke="white" stroke-width="1.5" stroke-linecap="round" stroke-linejoin="round"/>
<path d="M29.0798 22.7148L16.0084 28.7363C15.7292 28.8636 15.4259 28.9295 15.1191 28.9295C14.8122 28.9295 14.509 28.8636 14.2298 28.7363L1.22266 22.7148" stroke="white" stroke-width="1.5" stroke-linecap="round" stroke-linejoin="round"/>
</g>
<defs>
<clipPath id="clip0_692_103">
<rect width="30" height="30" fill="white" transform="translate(0.151367)"/>
</clipPath>
</defs>
</svg>
