<svg width="30" height="31" viewBox="0 0 30 31" fill="none" xmlns="http://www.w3.org/2000/svg">
<path d="M9.64272 27.9905C14.3766 27.9905 18.2141 24.153 18.2141 19.4191C18.2141 14.6852 14.3766 10.8477 9.64272 10.8477C4.90885 10.8477 1.07129 14.6852 1.07129 19.4191C1.07129 24.153 4.90885 27.9905 9.64272 27.9905Z" stroke="white" stroke-width="1.5" stroke-linecap="round" stroke-linejoin="round"/>
<path d="M20.3571 27.9905C25.0909 27.9905 28.9285 24.153 28.9285 19.4191C28.9285 14.6852 25.0909 10.8477 20.3571 10.8477C15.6232 10.8477 11.7856 14.6852 11.7856 19.4191C11.7856 24.153 15.6232 27.9905 20.3571 27.9905Z" stroke="white" stroke-width="1.5" stroke-linecap="round" stroke-linejoin="round"/>
<path d="M14.9997 19.4182C19.7335 19.4182 23.5711 15.5807 23.5711 10.8468C23.5711 6.11295 19.7335 2.27539 14.9997 2.27539C10.2658 2.27539 6.42822 6.11295 6.42822 10.8468C6.42822 15.5807 10.2658 19.4182 14.9997 19.4182Z" stroke="white" stroke-width="1.5" stroke-linecap="round" stroke-linejoin="round"/>
</svg>
