<svg width="24" height="25" viewBox="0 0 24 25" fill="none" xmlns="http://www.w3.org/2000/svg">
<g clip-path="url(#clip0_692_59)">
<path d="M2.57122 10.3555H4.2855C4.51283 10.3555 4.73085 10.4458 4.8916 10.6065C5.05234 10.7673 5.14265 10.9853 5.14265 11.2126V15.4983C5.14265 15.7257 5.05234 15.9437 4.8916 16.1044C4.73085 16.2652 4.51283 16.3555 4.2855 16.3555H2.57122C2.11656 16.3555 1.68053 16.1749 1.35904 15.8534C1.03755 15.5319 0.856934 15.0958 0.856934 14.6412V12.0698C0.856934 11.6151 1.03755 11.1791 1.35904 10.8576C1.68053 10.5361 2.11656 10.3555 2.57122 10.3555V10.3555Z" stroke="white" stroke-linecap="round" stroke-linejoin="round"/>
<path d="M21.4283 16.3555H19.714C19.4867 16.3555 19.2687 16.2652 19.1079 16.1044C18.9472 15.9437 18.8569 15.7257 18.8569 15.4983V11.2126C18.8569 10.9853 18.9472 10.7673 19.1079 10.6065C19.2687 10.4458 19.4867 10.3555 19.714 10.3555H21.4283C21.8829 10.3555 22.319 10.5361 22.6405 10.8576C22.962 11.1791 23.1426 11.6151 23.1426 12.0698V14.6412C23.1426 15.0958 22.962 15.5319 22.6405 15.8534C22.319 16.1749 21.8829 16.3555 21.4283 16.3555V16.3555Z" stroke="white" stroke-linecap="round" stroke-linejoin="round"/>
<path d="M16.2856 21.0698C17.195 21.0698 18.067 20.7085 18.71 20.0655C19.353 19.4226 19.7142 18.5505 19.7142 17.6412V16.3555" stroke="white" stroke-linecap="round" stroke-linejoin="round"/>
<path d="M14.1425 18.9258C14.7108 18.9258 15.2559 19.1515 15.6577 19.5534C16.0596 19.9553 16.2854 20.5003 16.2854 21.0686C16.2854 21.637 16.0596 22.182 15.6577 22.5839C15.2559 22.9857 14.7108 23.2115 14.1425 23.2115H11.5711C11.0028 23.2115 10.4577 22.9857 10.0559 22.5839C9.65399 22.182 9.42822 21.637 9.42822 21.0686C9.42822 20.5003 9.65399 19.9553 10.0559 19.5534C10.4577 19.1515 11.0028 18.9258 11.5711 18.9258H14.1425Z" stroke="white" stroke-linecap="round" stroke-linejoin="round"/>
<path d="M4.28564 10.3544V8.64007C4.28564 6.59411 5.0984 4.63195 6.54511 3.18524C7.99182 1.73853 9.95397 0.925781 11.9999 0.925781C14.0459 0.925781 16.008 1.73853 17.4548 3.18524C18.9015 4.63195 19.7142 6.59411 19.7142 8.64007V10.3544" stroke="white" stroke-linecap="round" stroke-linejoin="round"/>
<path d="M9.42822 6.92578V9.49721" stroke="white" stroke-linecap="round" stroke-linejoin="round"/>
<path d="M14.5713 6.92578V9.49721" stroke="white" stroke-linecap="round" stroke-linejoin="round"/>
<path d="M9.42822 12.9258C9.42822 15.2058 14.5711 15.2058 14.5711 12.9258" stroke="white" stroke-linecap="round" stroke-linejoin="round"/>
</g>
<defs>
<clipPath id="clip0_692_59">
<rect width="24" height="24" fill="white" transform="translate(0 0.0703125)"/>
</clipPath>
</defs>
</svg>
