<svg width="60" height="61" viewBox="0 0 60 61" fill="none" xmlns="http://www.w3.org/2000/svg">
<path d="M32.0146 30.0942C31.3789 30.3703 30.6933 30.5127 30.0003 30.5127C29.3073 30.5127 28.6217 30.3703 27.986 30.0942L3.55747 18.78C3.16078 18.5799 2.82743 18.2736 2.59452 17.8953C2.3616 17.5169 2.23828 17.0814 2.23828 16.6371C2.23828 16.1928 2.3616 15.7573 2.59452 15.3789C2.82743 15.0006 3.16078 14.6943 3.55747 14.4942L27.986 3.09424C28.6217 2.81822 29.3073 2.67578 30.0003 2.67578C30.6933 2.67578 31.3789 2.81822 32.0146 3.09424L56.4432 14.4085C56.8399 14.6086 57.1732 14.9149 57.4061 15.2932C57.639 15.6715 57.7624 16.1071 57.7624 16.5514C57.7624 16.9957 57.639 17.4312 57.4061 17.8096C57.1732 18.1879 56.8399 18.4942 56.4432 18.6942L32.0146 30.0942Z" stroke="white" stroke-width="2" stroke-linecap="round" stroke-linejoin="round"/>
<path d="M57.8574 32.0234L31.7145 44.0663C31.1561 44.321 30.5496 44.4528 29.9359 44.4528C29.3222 44.4528 28.7157 44.321 28.1574 44.0663L2.14307 32.0234" stroke="white" stroke-width="2" stroke-linecap="round" stroke-linejoin="round"/>
<path d="M57.8574 45.9512L31.7145 57.994C31.1561 58.2487 30.5496 58.3805 29.9359 58.3805C29.3222 58.3805 28.7157 58.2487 28.1574 57.994L2.14307 45.9512" stroke="white" stroke-width="2" stroke-linecap="round" stroke-linejoin="round"/>
</svg>
