<svg width="51" height="50" viewBox="0 0 51 50" fill="none" xmlns="http://www.w3.org/2000/svg">
<circle cx="25.5" cy="25" r="25" fill="url(#paint0_linear_456_296)"/>
<path d="M22.0555 11.4658L11.036 30.5606C10.3213 31.8041 10.3213 33.2905 11.036 34.5268C11.7506 35.7703 13.0369 36.5135 14.4733 36.5135H18.1465C19.5615 36.5135 20.8764 35.756 21.5838 34.5268L21.8411 34.0838C21.9054 34.2338 21.9769 34.3839 22.0627 34.5268C22.7773 35.7703 24.0636 36.5135 25.5 36.5135H29.1732C30.5881 36.5135 31.903 35.756 32.6105 34.5268L32.8678 34.0838C32.9321 34.2338 33.0036 34.3839 33.0893 34.5268C33.804 35.7703 35.0903 36.5135 36.5267 36.5135C37.9631 36.5135 39.2494 35.7703 39.964 34.5268C40.6787 33.2834 40.6787 31.7969 39.964 30.5606C39.2494 29.3172 37.9631 28.574 36.5267 28.574C36.3623 28.574 36.198 28.5811 36.0336 28.6026L36.2909 28.1595C36.9983 26.9375 36.9983 25.4153 36.2909 24.1933L34.4543 21.0132C33.7396 19.7698 32.4533 19.0266 31.0169 19.0266C30.8525 19.0266 30.6882 19.0337 30.5238 19.0552L30.7811 18.6121C31.4886 17.3901 31.4886 15.8679 30.7811 14.6459L28.9445 11.473C28.2299 10.2295 26.9435 9.48633 25.5071 9.48633C24.0708 9.48633 22.7844 10.2295 22.0698 11.473L22.0555 11.4658ZM36.5124 30.1462C37.3771 30.1462 38.156 30.5964 38.5848 31.3467C39.0136 32.0971 39.0207 32.9904 38.5848 33.7407C38.1489 34.4911 37.3771 34.9413 36.5124 34.9413C35.6477 34.9413 34.8687 34.4911 34.44 33.7407C34.0041 32.9904 34.0041 32.0971 34.44 31.3467C34.8759 30.5964 35.6477 30.1462 36.5124 30.1462ZM31.0026 20.5916C31.8673 20.5916 32.6463 21.0418 33.075 21.7922L34.9116 24.9723C35.3404 25.7083 35.3404 26.6302 34.9116 27.3663L31.2384 33.7336C30.8097 34.4697 30.0164 34.9342 29.166 34.9342H25.4929C24.6282 34.9342 23.8492 34.4839 23.4204 33.7336C22.9845 32.9832 22.9845 32.0899 23.4204 31.3396L28.9302 21.785C29.3661 21.0347 30.1379 20.5845 31.0026 20.5845V20.5916ZM25.4929 11.0514C26.3576 11.0514 27.1365 11.5016 27.5653 12.2519L29.4019 15.4249C29.8306 16.1609 29.8306 17.0828 29.4019 17.8189L27.5653 21.0061L22.0555 30.5535L20.2189 33.7336C19.7901 34.4697 18.9969 34.9342 18.1465 34.9342H14.4733C13.6086 34.9342 12.8297 34.4839 12.4009 33.7336C11.965 32.9832 11.965 32.0899 12.4009 31.3396L23.4204 12.2448C23.8564 11.4944 24.6282 11.0442 25.4929 11.0442V11.0514Z" fill="white"/>
<path d="M18.1391 29.131C18.2606 29.2025 18.3964 29.2382 18.5322 29.2382C18.8037 29.2382 19.0682 29.0953 19.2111 28.8452L23.9348 20.6699C24.1491 20.2911 24.0205 19.8123 23.6489 19.5979C23.2702 19.3835 22.7914 19.5122 22.577 19.8838L17.8533 28.0591C17.6389 28.4378 17.7675 28.9166 18.1391 29.131Z" fill="white"/>
<path d="M28.0654 31.1036C28.1869 31.175 28.3227 31.2108 28.4585 31.2108C28.73 31.2108 28.9944 31.0678 29.1373 30.8177L31.417 26.873C31.6314 26.4942 31.5028 26.0154 31.1312 25.801C30.7524 25.5867 30.2736 25.7153 30.0592 26.0869L27.7796 30.0316C27.5652 30.4104 27.6938 30.8892 28.0654 31.1036Z" fill="white"/>
<defs>
<linearGradient id="paint0_linear_456_296" x1="0.5" y1="25" x2="50.5" y2="25" gradientUnits="userSpaceOnUse">
<stop stop-color="#386BB7"/>
<stop offset="1" stop-color="#E24C4A"/>
</linearGradient>
</defs>
</svg>
