<svg width="184" height="50" viewBox="0 0 184 50" fill="none" xmlns="http://www.w3.org/2000/svg">
<circle cx="25.5" cy="25" r="25" fill="url(#paint0_linear_456_295)"/>
<path d="M22.0555 11.4658L11.036 30.5606C10.3213 31.8041 10.3213 33.2905 11.036 34.5268C11.7506 35.7703 13.0369 36.5135 14.4733 36.5135H18.1465C19.5615 36.5135 20.8764 35.756 21.5838 34.5268L21.8411 34.0838C21.9054 34.2338 21.9769 34.3839 22.0627 34.5268C22.7773 35.7703 24.0636 36.5135 25.5 36.5135H29.1732C30.5881 36.5135 31.903 35.756 32.6105 34.5268L32.8678 34.0838C32.9321 34.2338 33.0036 34.3839 33.0893 34.5268C33.804 35.7703 35.0903 36.5135 36.5267 36.5135C37.9631 36.5135 39.2494 35.7703 39.964 34.5268C40.6787 33.2834 40.6787 31.7969 39.964 30.5606C39.2494 29.3172 37.9631 28.574 36.5267 28.574C36.3623 28.574 36.198 28.5811 36.0336 28.6026L36.2909 28.1595C36.9983 26.9375 36.9983 25.4153 36.2909 24.1933L34.4543 21.0132C33.7396 19.7698 32.4533 19.0266 31.0169 19.0266C30.8525 19.0266 30.6882 19.0337 30.5238 19.0552L30.7811 18.6121C31.4886 17.3901 31.4886 15.8679 30.7811 14.6459L28.9445 11.473C28.2299 10.2295 26.9435 9.48633 25.5071 9.48633C24.0708 9.48633 22.7844 10.2295 22.0698 11.473L22.0555 11.4658ZM36.5124 30.1462C37.3771 30.1462 38.156 30.5964 38.5848 31.3467C39.0136 32.0971 39.0207 32.9904 38.5848 33.7407C38.1489 34.4911 37.3771 34.9413 36.5124 34.9413C35.6477 34.9413 34.8687 34.4911 34.44 33.7407C34.0041 32.9904 34.0041 32.0971 34.44 31.3467C34.8759 30.5964 35.6477 30.1462 36.5124 30.1462ZM31.0026 20.5916C31.8673 20.5916 32.6463 21.0418 33.075 21.7922L34.9116 24.9723C35.3404 25.7083 35.3404 26.6302 34.9116 27.3663L31.2384 33.7336C30.8097 34.4697 30.0164 34.9342 29.166 34.9342H25.4929C24.6282 34.9342 23.8492 34.4839 23.4204 33.7336C22.9845 32.9832 22.9845 32.0899 23.4204 31.3396L28.9302 21.785C29.3661 21.0347 30.1379 20.5845 31.0026 20.5845V20.5916ZM25.4929 11.0514C26.3576 11.0514 27.1365 11.5016 27.5653 12.2519L29.4019 15.4249C29.8306 16.1609 29.8306 17.0828 29.4019 17.8189L27.5653 21.0061L22.0555 30.5535L20.2189 33.7336C19.7901 34.4697 18.9969 34.9342 18.1465 34.9342H14.4733C13.6086 34.9342 12.8297 34.4839 12.4009 33.7336C11.965 32.9832 11.965 32.0899 12.4009 31.3396L23.4204 12.2448C23.8564 11.4944 24.6282 11.0442 25.4929 11.0442V11.0514Z" fill="white"/>
<path d="M18.1391 29.131C18.2606 29.2025 18.3964 29.2382 18.5322 29.2382C18.8037 29.2382 19.0682 29.0953 19.2111 28.8452L23.9348 20.6699C24.1491 20.2911 24.0205 19.8123 23.6489 19.5979C23.2702 19.3835 22.7914 19.5122 22.577 19.8838L17.8533 28.0591C17.6389 28.4378 17.7675 28.9166 18.1391 29.131Z" fill="white"/>
<path d="M28.0654 31.1036C28.1869 31.175 28.3227 31.2108 28.4585 31.2108C28.73 31.2108 28.9944 31.0678 29.1373 30.8177L31.417 26.873C31.6314 26.4942 31.5028 26.0154 31.1312 25.801C30.7524 25.5867 30.2736 25.7153 30.0592 26.0869L27.7796 30.0316C27.5652 30.4104 27.6938 30.8892 28.0654 31.1036Z" fill="white"/>
<path d="M66.2992 34.5V17.22H69.6112L77.1232 28.74V17.22H80.4352V34.5H77.1232L69.6112 22.98V34.5H66.2992ZM89.3276 34.86C87.9996 34.86 86.8276 34.576 85.8116 34.008C84.8036 33.432 84.0116 32.644 83.4356 31.644C82.8676 30.636 82.5836 29.484 82.5836 28.188C82.5836 26.772 82.8636 25.54 83.4236 24.492C83.9836 23.444 84.7556 22.632 85.7396 22.056C86.7236 21.472 87.8556 21.18 89.1356 21.18C90.4956 21.18 91.6516 21.5 92.6036 22.14C93.5556 22.78 94.2596 23.68 94.7156 24.84C95.1716 26 95.3316 27.364 95.1956 28.932H91.9676V27.732C91.9676 26.412 91.7556 25.464 91.3316 24.888C90.9156 24.304 90.2316 24.012 89.2796 24.012C88.1676 24.012 87.3476 24.352 86.8196 25.032C86.2996 25.704 86.0396 26.7 86.0396 28.02C86.0396 29.228 86.2996 30.164 86.8196 30.828C87.3476 31.484 88.1196 31.812 89.1356 31.812C89.7756 31.812 90.3236 31.672 90.7796 31.392C91.2356 31.112 91.5836 30.708 91.8236 30.18L95.0876 31.116C94.5996 32.3 93.8276 33.22 92.7716 33.876C91.7236 34.532 90.5756 34.86 89.3276 34.86ZM85.0316 28.932V26.508H93.6236V28.932H85.0316ZM95.5164 34.5L100.148 27.948L95.6124 21.54H99.4524L102.044 25.38L104.588 21.54H108.428L103.892 27.948L108.548 34.5H104.708L102.044 30.516L99.3564 34.5H95.5164ZM117.776 34.5C116.88 34.668 116 34.74 115.136 34.716C114.28 34.7 113.512 34.552 112.832 34.272C112.16 33.984 111.648 33.524 111.296 32.892C110.976 32.3 110.808 31.7 110.792 31.092C110.776 30.476 110.768 29.78 110.768 29.004V17.94H114.032V28.812C114.032 29.316 114.036 29.772 114.044 30.18C114.06 30.58 114.144 30.9 114.296 31.14C114.584 31.596 115.044 31.844 115.676 31.884C116.308 31.924 117.008 31.892 117.776 31.788V34.5ZM108.56 24.06V21.54H117.776V24.06H108.56ZM135.784 34.5V26.844C135.784 25.988 135.58 25.324 135.172 24.852C134.772 24.372 134.216 24.132 133.504 24.132C133.048 24.132 132.652 24.24 132.316 24.456C131.98 24.664 131.716 24.96 131.524 25.344C131.34 25.72 131.248 26.156 131.248 26.652L129.88 25.74C129.88 24.852 130.088 24.068 130.504 23.388C130.928 22.708 131.492 22.18 132.196 21.804C132.908 21.42 133.696 21.228 134.56 21.228C136.04 21.228 137.156 21.668 137.908 22.548C138.668 23.42 139.048 24.564 139.048 25.98V34.5H135.784ZM120.16 34.5V21.54H123.04V25.836H123.448V34.5H120.16ZM127.984 34.5V26.844C127.984 25.988 127.78 25.324 127.372 24.852C126.972 24.372 126.416 24.132 125.704 24.132C125.024 24.132 124.476 24.368 124.06 24.84C123.652 25.304 123.448 25.908 123.448 26.652L122.08 25.692C122.08 24.844 122.292 24.084 122.716 23.412C123.14 22.74 123.708 22.208 124.42 21.816C125.14 21.424 125.944 21.228 126.832 21.228C127.848 21.228 128.68 21.444 129.328 21.876C129.984 22.308 130.468 22.884 130.78 23.604C131.092 24.324 131.248 25.116 131.248 25.98V34.5H127.984ZM141.928 19.74V16.86H145.192V19.74H141.928ZM141.928 34.5V21.54H145.192V34.5H141.928ZM157.142 34.5V28.38C157.142 28.084 157.126 27.708 157.094 27.252C157.062 26.788 156.962 26.324 156.794 25.86C156.626 25.396 156.35 25.008 155.966 24.696C155.59 24.384 155.054 24.228 154.358 24.228C154.078 24.228 153.778 24.272 153.458 24.36C153.138 24.448 152.838 24.62 152.558 24.876C152.278 25.124 152.046 25.492 151.862 25.98C151.686 26.468 151.598 27.116 151.598 27.924L149.726 27.036C149.726 26.012 149.934 25.052 150.35 24.156C150.766 23.26 151.39 22.536 152.222 21.984C153.062 21.432 154.118 21.156 155.39 21.156C156.406 21.156 157.234 21.328 157.874 21.672C158.514 22.016 159.01 22.452 159.362 22.98C159.722 23.508 159.978 24.06 160.13 24.636C160.282 25.204 160.374 25.724 160.406 26.196C160.438 26.668 160.454 27.012 160.454 27.228V34.5H157.142ZM148.286 34.5V21.54H151.19V25.836H151.598V34.5H148.286ZM168.109 34.86C166.917 34.86 165.873 34.56 164.977 33.96C164.081 33.36 163.381 32.544 162.877 31.512C162.381 30.48 162.133 29.316 162.133 28.02C162.133 26.7 162.385 25.528 162.889 24.504C163.401 23.472 164.117 22.66 165.037 22.068C165.957 21.476 167.037 21.18 168.277 21.18C169.509 21.18 170.545 21.48 171.385 22.08C172.225 22.68 172.861 23.496 173.293 24.528C173.725 25.56 173.941 26.724 173.941 28.02C173.941 29.316 173.721 30.48 173.281 31.512C172.849 32.544 172.201 33.36 171.337 33.96C170.473 34.56 169.397 34.86 168.109 34.86ZM168.637 31.956C169.365 31.956 169.945 31.792 170.377 31.464C170.817 31.136 171.133 30.676 171.325 30.084C171.517 29.492 171.613 28.804 171.613 28.02C171.613 27.236 171.517 26.548 171.325 25.956C171.133 25.364 170.825 24.904 170.401 24.576C169.985 24.248 169.437 24.084 168.757 24.084C168.029 24.084 167.429 24.264 166.957 24.624C166.493 24.976 166.149 25.452 165.925 26.052C165.701 26.644 165.589 27.3 165.589 28.02C165.589 28.748 165.697 29.412 165.913 30.012C166.129 30.604 166.461 31.076 166.909 31.428C167.357 31.78 167.933 31.956 168.637 31.956ZM171.613 34.5V25.62H171.205V17.22H174.493V34.5H171.613Z" fill="#E24C4A"/>
<path d="M177.901 34.5V31.236H181.165V34.5H177.901Z" fill="white"/>
<defs>
<linearGradient id="paint0_linear_456_295" x1="0.5" y1="25" x2="50.5" y2="25" gradientUnits="userSpaceOnUse">
<stop stop-color="#386BB7"/>
<stop offset="1" stop-color="#E24C4A"/>
</linearGradient>
</defs>
</svg>
